Coordinates
version=1
nRows=14
nColumns=40
inDegrees=yes
endheader
time	pelvis_tilt	pelvis_list	pelvis_rotation	pelvis_tx	pelvis_ty	pelvis_tz	hip_flexion_r	hip_adduction_r	hip_rotation_r	knee_angle_r	knee_angle_r_beta	ankle_angle_r	subtalar_angle_r	mtp_angle_r	hip_flexion_l	hip_adduction_l	hip_rotation_l	knee_angle_l	knee_angle_l_beta	ankle_angle_l	subtalar_angle_l	mtp_angle_l	lumbar_extension	lumbar_bending	lumbar_rotation	arm_flex_r	arm_add_r	arm_rot_r	elbow_flex_r	pro_sup_r	wrist_flex_r	wrist_dev_r	arm_flex_l	arm_add_l	arm_rot_l	elbow_flex_l	pro_sup_l	wrist_flex_l	wrist_dev_l
1760625089.97600007	      0.19428139	     -0.31936731	      1.52950782	     -0.03906284	      0.99293766	      0.00843016	     80.00000000	     -7.00000000	      0.00000000	     80.00000000	      1.39626340	      0.00000000	      0.00000000	      0.00000000	     80.00000000	     -7.00000000	      0.00000000	     80.00000000	      1.39626340	      0.00000000	      0.00000000	      0.00000000	      2.33370335	     -2.61827879	      0.72838123	     10.35580405	    -12.18129615	     14.09106111	     62.76399230	    159.80653806	    -17.49143220	     35.00000010	      4.31955776	     -9.20968100	     -6.57504034	     79.64137548	    129.74183595	      4.10784355	      8.38421800
1760625090.00900006	      0.19182875	     -0.30971204	      1.53224216	     -0.03843045	      0.99279912	      0.00851697	     80.00000000	     -7.00000000	      0.00000000	     80.00000000	      1.39626340	      0.00000000	      0.00000000	      0.00000000	     80.00000000	     -7.00000000	      0.00000000	     80.00000000	      1.39626340	      0.00000000	      0.00000000	      0.00000000	      2.38903888	     -2.62132197	      0.74279143	     10.23748438	    -12.13666633	     14.45637174	     62.14830767	    159.59782370	    -18.24626923	     35.00000010	      4.20054401	     -9.10415580	     -6.56498325	     79.61556076	    129.79876803	      4.05095780	      8.44269159
1760625090.04299998	      0.18522446	     -0.30110781	      1.52734695	     -0.04084900	      0.99195760	      0.00827014	     80.00000000	     -7.00000000	      0.00000000	     80.00000000	      1.39626340	      0.00000000	      0.00000000	      0.00000000	     80.00000000	     -7.00000000	      0.00000000	     80.00000000	      1.39626340	      0.00000000	      0.00000000	      0.00000000	      2.36445490	     -2.57441238	      0.80010794	     10.34066459	    -12.15457607	     14.83288677	     61.19305140	    159.39528376	    -19.13399049	     35.00000010	      4.21333466	     -8.99549137	     -6.48938338	     79.57615016	    129.74408156	      4.01727924	      8.38636082
1760625090.07599998	      0.18581483	     -0.28923463	      1.53223849	     -0.04145599	      0.99149398	      0.00857563	     80.00000000	     -7.00000000	      0.00000000	     80.00000000	      1.39626340	      0.00000000	      0.00000000	      0.00000000	     80.00000000	     -7.00000000	      0.00000000	     80.00000000	      1.39626340	      0.00000000	      0.00000000	      0.00000000	      2.37851006	     -2.62098534	      0.73159455	     10.37156838	    -12.16094072	     15.01187063	     61.29837132	    159.40912729	    -19.17480429	     35.00000010	      4.19326740	     -8.95189722	     -6.52877862	     79.62377139	    129.77250174	      4.06138302	      8.38218724
1760625090.10999990	      0.18557065	     -0.28200875	      1.53151922	     -0.04246581	      0.99033190	      0.00865789	     80.00000000	     -7.00000000	      0.00000000	     80.00000000	      1.39626340	      0.00000000	      0.00000000	      0.00000000	     80.00000000	     -7.00000000	      0.00000000	     80.00000000	      1.39626340	      0.00000000	      0.00000000	      0.00000000	      2.47362367	     -2.63092309	      0.70416068	     10.30063256	    -12.25152038	     15.32846379	     60.87405252	    159.22218552	    -19.70497022	     35.00000010	      4.09223999	     -8.93527393	     -6.46012013	     79.68441975	    129.77323952	      4.05290265	      8.35104278
1760625090.14299989	      0.18103796	     -0.27341768	      1.53909776	     -0.03880356	      0.98982243	      0.00893476	     80.00000000	     -7.00000000	      0.00000000	     80.00000000	      1.39626340	      0.00000000	      0.00000000	      0.00000000	     80.00000000	     -7.00000000	      0.00000000	     80.00000000	      1.39626340	      0.00000000	      0.00000000	      0.00000000	      2.56387846	     -2.68722016	      0.63462466	     10.11146278	    -12.23486848	     15.44096619	     61.02087503	    159.17213308	    -19.88014900	     35.00000010	      4.07074474	     -8.93894620	     -6.36760080	     79.70462900	    129.74948662	      4.03884849	      8.31484023
1760625090.17700005	      0.16069087	     -0.26329553	      1.53445530	     -0.03666698	      0.98886855	      0.00902625	     80.00000000	     -7.00000000	      0.00000000	     80.00000000	      1.39626340	      0.00000000	      0.00000000	      0.00000000	     80.00000000	     -7.00000000	      0.00000000	     80.00000000	      1.39626340	      0.00000000	      0.00000000	      0.00000000	      2.70480016	     -2.72707873	      0.62962605	      9.91155094	    -12.19334786	     15.58804298	     60.81819147	    159.01602389	    -20.30646557	     35.00000010	      4.05283472	     -8.87999269	     -6.15818585	     79.72358386	    129.69011717	      3.99794404	      8.29453303
1760625090.21000004	      0.15577758	     -0.26856970	      1.52479916	     -0.03714172	      0.98872110	      0.00917598	     80.00000000	     -7.00000000	      0.00000000	     80.00000000	      1.39626340	      0.00000000	      0.00000000	      0.00000000	     80.00000000	     -7.00000000	      0.00000000	     80.00000000	      1.39626340	      0.00000000	      0.00000000	      0.00000000	      2.70378510	     -2.75726465	      0.61803122	      9.97026452	    -12.12226945	     15.73145521	     60.55634828	    158.85557965	    -20.61889894	     35.00000010	      4.17282131	     -8.85605098	     -5.99601302	     79.68794438	    129.62974960	      3.89453374	      8.26640900
1760625090.24300003	      0.16577661	     -0.27525642	      1.51850570	     -0.03865025	      0.98922751	      0.00939231	     80.00000000	     -7.00000000	      0.00000000	     80.00000000	      1.39626340	      0.00000000	      0.00000000	      0.00000000	     80.00000000	     -7.00000000	      0.00000000	     80.00000000	      1.39626340	      0.00000000	      0.00000000	      0.00000000	      2.65794031	     -2.80337081	      0.56060142	     10.05515283	    -12.05096311	     15.82249056	     60.63413339	    158.72584510	    -20.65477451	     35.00000010	      4.31638468	     -8.83731226	     -5.89395082	     79.69078027	    129.55766092	      3.84052556	      8.29787476
1760625090.27699995	      0.15605822	     -0.29191706	      1.51828393	     -0.03898292	      0.98923546	      0.00941997	     80.00000000	     -7.00000000	      0.00000000	     80.00000000	      1.39626340	      0.00000000	      0.00000000	      0.00000000	     80.00000000	     -7.00000000	      0.00000000	     80.00000000	      1.39626340	      0.00000000	      0.00000000	      0.00000000	      2.66585377	     -2.81037809	      0.53261809	     10.08407116	    -12.01367782	     15.88866851	     60.57344079	    158.55968204	    -20.79691117	     35.00000010	      4.40936930	     -8.74622492	     -5.74423646	     79.78444290	    129.51670238	      3.81945480	      8.39700152
1760625090.30999994	      0.16211550	     -0.30136298	      1.51752282	     -0.03856275	      0.98925193	      0.00927256	     80.00000000	     -7.00000000	      0.00000000	     80.00000000	      1.39626340	      0.00000000	      0.00000000	      0.00000000	     80.00000000	     -7.00000000	      0.00000000	     80.00000000	      1.39626340	      0.00000000	      0.00000000	      0.00000000	      2.64171820	     -2.84875024	      0.50093685	     10.11358336	    -11.86309936	     15.88376139	     60.54058315	    158.50176482	    -20.89766742	     35.00000010	      4.51619710	     -8.72838541	     -5.66166831	     79.83189035	    129.51196847	      3.75612833	      8.41700102
1760625090.34400010	      0.15442830	     -0.31963407	      1.51916925	     -0.03896301	      0.98952409	      0.00982902	     80.00000000	     -7.00000000	      0.00000000	     80.00000000	      1.39626340	      0.00000000	      0.00000000	      0.00000000	     80.00000000	     -7.00000000	      0.00000000	     80.00000000	      1.39626340	      0.00000000	      0.00000000	      0.00000000	      2.57718147	     -2.86736149	      0.41249877	     10.19352411	    -11.69792068	     15.94539829	     60.40010619	    158.42548121	    -21.05388023	     35.00000010	      4.67122915	     -8.72563913	     -5.63301320	     79.82257854	    129.47636285	      3.67343481	      8.38896185
1760625090.37800002	      0.14144166	     -0.33796293	      1.53967302	     -0.03829429	      0.99001691	      0.01000546	     80.00000000	     -7.00000000	      0.00000000	     80.00000000	      1.39626340	      0.00000000	      0.00000000	      0.00000000	     80.00000000	     -7.00000000	      0.00000000	     80.00000000	      1.39626340	      0.00000000	      0.00000000	      0.00000000	      2.50101312	     -2.83959618	      0.31597947	     10.34094587	    -11.56374389	     15.91204804	     60.36472644	    158.39527198	    -21.04122870	     35.00000010	      4.87300707	     -8.71104473	     -5.59041925	     79.75731305	    129.40948932	      3.58616100	      8.38150949
1760625090.41100001	      0.13195050	     -0.34912551	      1.54567884	     -0.03913478	      0.99036140	      0.01050444	     80.00000000	     -7.00000000	      0.00000000	     80.00000000	      1.39626340	      0.00000000	      0.00000000	      0.00000000	     80.00000000	     -7.00000000	      0.00000000	     80.00000000	      1.39626340	      0.00000000	      0.00000000	      0.00000000	      2.45113152	     -2.85017295	      0.30158720	     10.45380843	    -11.38962677	     15.84920995	     60.24291371	    158.35913631	    -21.01412113	     35.00000010	      4.95434452	     -8.74538726	     -5.54885688	     79.75202064	    129.41601804	      3.56758214	      8.40184385
